<?xml version="1.0" encoding="UTF-8"?>
<svg id="Capa_1" xmlns="http://www.w3.org/2000/svg" version="1.1" viewBox="0 0 638.4 272.6">
  <!-- Generator: Adobe Illustrator 30.4.0, SVG Export Plug-In . SVG Version: 2.1.4 Build 226)  -->
  <defs>
    <style>
      .st0 {
        fill: #001d51;
      }
    </style>
  </defs>
  <g id="Group_25">
    <rect id="Rectangle_4" class="st0" x="327.8" y="243.4" width="1.8" height="15.2"/>
    <g id="Group_24">
      <g id="Group_23">
        <path id="Path_144" class="st0" d="M339.9,249.7c-.7,0-1.4.2-2,.5-.6.3-1,.8-1.3,1.4l-.6,1.1-.3-2.5h-1.5v8.5h1.7v-3.8c0-1,.2-1.9.8-2.7.5-.7,1.3-1.1,2.2-1.1h0c.5,0,1,.2,1.4.6.3.4.5.9.5,1.4v5.6h1.7v-6.5c0-.7-.3-1.3-.8-1.7-.5-.5-1.2-.7-1.9-.7"/>
        <path id="Path_145" class="st0" d="M352.4,249.7c-.7,0-1.4.1-2,.5-.6.3-1,.8-1.3,1.4l-.6,1.1-.3-2.5h-1.5v8.5h1.7v-3.8c0-1,.2-1.9.8-2.7.5-.7,1.3-1.1,2.2-1.1h0c.5,0,1,.2,1.4.6.3.4.5.9.5,1.4v5.6h1.7v-6.5c0-.7-.3-1.3-.8-1.7-.5-.5-1.2-.7-1.9-.7"/>
        <path id="Path_146" class="st0" d="M365.8,250.3c-.8-.4-1.6-.6-2.5-.6-.9,0-1.7.2-2.5.6-.7.4-1.3.9-1.7,1.6-.4.7-.6,1.5-.6,2.3,0,.9.2,1.7.6,2.5.4.7,1,1.2,1.7,1.6.8.4,1.6.6,2.5.6.9,0,1.8-.2,2.5-.6.7-.4,1.3-.9,1.7-1.6.8-1.5.8-3.2,0-4.7-.4-.7-1-1.3-1.7-1.6M365.4,256.6c-.6.6-1.4,1-2.2.9-.8,0-1.6-.3-2.2-1-.6-.6-.9-1.5-.9-2.4,0-.9.3-1.7.9-2.3.5-.6,1.4-1,2.2-1,.9,0,1.7.3,2.2,1,.6.7.9,1.5.9,2.4,0,.9-.3,1.7-.9,2.4"/>
        <path id="Path_147" class="st0" d="M374.8,255.9l-2.8-5.8h-2l4.8,8.5,4.5-8.5h-1.9l-2.5,5.8h0Z"/>
        <path id="Path_148" class="st0" d="M389,252l-.5-.8c-.7-1-1.9-1.6-3.1-1.5-.8,0-1.5.2-2.1.6-.7.4-1.2,1-1.6,1.6-.4.8-.6,1.6-.6,2.5,0,.9.2,1.7.6,2.5.4.6.9,1.2,1.5,1.5.7.4,1.5.5,2.2.5.6,0,1.3-.1,1.8-.4.5-.3.9-.6,1.3-1l.7-.8v2h1.7v-8.5h-1.6l-.3,1.9h0ZM389.1,255.3h0c-.5,1.7-2.3,2.7-4,2.2-.2,0-.5-.2-.7-.3-1-.6-1.6-1.7-1.6-2.9,0-.9.3-1.7.9-2.4.6-.6,1.4-.9,2.2-.9.7,0,1.4.2,2,.6.6.4,1,.9,1.2,1.6v2.2h0Z"/>
        <path id="Path_149" class="st0" d="M397.6,246h-1.7v4.1h-1.6v1.2h1.6v7.4h1.7v-7.4h2.4v-1.2h-2.4v-4.1Z"/>
        <rect id="Rectangle_5" class="st0" x="403.2" y="250.1" width="1.7" height="8.5"/>
        <path id="Path_150" class="st0" d="M404.1,245.4c-.3,0-.5.1-.7.3-.2.2-.3.4-.3.6s.1.5.3.6c.2.2.5.3.7.3s.5-.1.7-.3c.2-.1.3-.4.3-.6,0-.2-.1-.5-.3-.6-.2-.2-.4-.3-.7-.3"/>
        <path id="Path_151" class="st0" d="M415.6,250.3c-.8-.4-1.6-.6-2.5-.6-.9,0-1.7.2-2.5.6-.7.4-1.3.9-1.7,1.6-.4.7-.6,1.5-.6,2.3,0,.9.2,1.7.6,2.5.4.7,1,1.2,1.7,1.6.8.4,1.6.6,2.5.6.9,0,1.8-.2,2.5-.6.7-.4,1.3-.9,1.7-1.6.8-1.5.8-3.2,0-4.7-.4-.7-1-1.3-1.7-1.6M415.3,256.6c-.6.6-1.4,1-2.2.9-.8,0-1.6-.3-2.2-1-.6-.6-.9-1.5-.9-2.4,0-.9.3-1.7.9-2.3.5-.6,1.4-1,2.2-1,.9,0,1.7.3,2.2,1,.6.7.9,1.5.9,2.4,0,.9-.3,1.7-.9,2.4"/>
        <path id="Path_152" class="st0" d="M426.9,249.7c-.7,0-1.4.1-2,.5-.6.3-1,.8-1.3,1.4l-.6,1.1-.3-2.5h-1.5v8.5h1.7v-3.8c0-1,.2-1.9.8-2.7.5-.7,1.3-1.1,2.2-1.1h0c.5,0,1,.2,1.4.6.3.4.5.9.5,1.4v5.6h1.7v-6.5c0-.7-.3-1.3-.8-1.7-.5-.5-1.2-.7-1.9-.7"/>
        <rect id="Rectangle_6" class="st0" x="441.2" y="243.4" width="1.8" height="15.2"/>
        <path id="Path_153" class="st0" d="M453.4,249.7c-.7,0-1.4.1-2,.5-.6.3-1,.8-1.3,1.4l-.6,1.1-.3-2.5h-1.5v8.5h1.7v-3.8c0-1,.2-1.9.8-2.7.5-.7,1.3-1.1,2.2-1.1h0c.5,0,1,.2,1.4.6.3.4.5.9.5,1.4v5.6h1.7v-6.5c0-.7-.3-1.3-.8-1.7-.5-.5-1.2-.7-1.9-.7"/>
        <path id="Path_154" class="st0" d="M463.9,253.7h0s-.1,0-.5-.1c-.5-.1-.9-.3-1.4-.6-.4-.2-.6-.6-.5-1.1,0-.4.2-.8.5-1,.3-.2.8-.3,1.2-.3.4,0,.8,0,1.2.2.3.1.5.2.7.4l.5-.8c-.3-.2-.7-.4-1-.5-.6-.2-1.1-.2-1.7-.2-.6,0-1.2.1-1.7.4-.4.2-.8.5-1,.9-.2.4-.3.8-.3,1.2,0,.5.2,1,.5,1.4.4.5,1,.8,1.6,1l.7.2c.4.1.7.3,1.1.5.4.2.6.6.6,1.1,0,.4-.2.9-.6,1.1-.4.2-.8.3-1.3.3-.9,0-1.7-.4-2.3-1l-.6.8c.4.3.8.6,1.2.8.6.2,1.2.4,1.9.4.9,0,1.8-.2,2.5-.8.6-.5.9-1.2.9-2,0-.5-.2-1-.5-1.4-.4-.4-1-.7-1.6-.9"/>
        <path id="Path_155" class="st0" d="M470.4,245.4c-.3,0-.5.1-.7.3-.2.2-.3.4-.3.6,0,.2.1.5.3.6.2.2.5.3.7.3s.5-.1.7-.3c.2-.1.3-.4.3-.6,0-.2-.1-.5-.3-.6-.2-.2-.4-.3-.7-.3"/>
        <rect id="Rectangle_7" class="st0" x="469.5" y="250.1" width="1.7" height="8.5"/>
        <path id="Path_156" class="st0" d="M482.7,251.7l-.5-.7c-.3-.4-.8-.8-1.3-.9-.6-.3-1.3-.4-2-.4-.8,0-1.5.2-2.2.6-.7.4-1.2,1-1.6,1.7-.8,1.5-.8,3.2,0,4.7.4.7.9,1.2,1.6,1.6.6.4,1.4.6,2.2.6.7,0,1.4-.1,2.1-.4.5-.3,1-.7,1.3-1.2l.7-1.2v2.9c0,.8-.4,1.6-1,2.1-.7.5-1.5.8-2.4.8-.6,0-1.2-.1-1.8-.4s-.9-.5-1.2-.8l-1,1.1c.5.4,1.1.8,1.7,1.1.8.3,1.6.5,2.4.4.9,0,1.8-.2,2.6-.6.7-.3,1.3-.9,1.8-1.5.4-.6.6-1.4.6-2.1v-9h-1.6l-.3,1.6h0ZM482.9,255.3h0c-.2.7-.6,1.3-1.2,1.7-.6.4-1.3.6-2.1.6-.6,0-1.2-.1-1.7-.4-1-.6-1.7-1.7-1.6-2.9,0-.9.3-1.8,1-2.4.6-.6,1.5-.9,2.4-.9.7,0,1.4.2,2,.6.6.4,1,.9,1.2,1.6h0v2.2h0Z"/>
        <path id="Path_157" class="st0" d="M494.4,249.7c-.7,0-1.4.1-2,.5-.5.3-1,.8-1.3,1.3l-.7,1.2v-10.4h-1.7v16.4h1.7v-3.8c0-1,.2-1.9.8-2.7.5-.7,1.3-1.1,2.2-1.1h0c.5,0,1,.2,1.4.6.3.4.5.9.5,1.4v5.6h1.7v-6.5c0-.7-.3-1.3-.8-1.7-.5-.5-1.2-.7-1.9-.7"/>
        <path id="Path_158" class="st0" d="M503.9,246h-1.7v4.1h-1.6v1.2h1.6v7.4h1.7v-7.4h2.4v-1.2h-2.4v-4.1Z"/>
        <path id="Path_159" class="st0" d="M515.5,258.6h1.7l1.5-3.8h6.3l1.5,3.8h2.1l-6.6-15.5-6.6,15.5h0ZM519.3,253.4l2.6-6.4,2.5,6.4h-5.2Z"/>
        <path id="Path_160" class="st0" d="M535.5,251.1c.5,0,.9,0,1.3.3.3.1.5.2.8.4l.8-1c-.9-.6-2-.9-3.1-.9-.8,0-1.6.2-2.2.6s-1.3.9-1.7,1.6c-.4.7-.6,1.5-.6,2.4,0,.8.2,1.7.6,2.4.4.7,1,1.2,1.7,1.6.8.4,1.7.6,2.5.6.6,0,1.1-.1,1.7-.3.4-.1.8-.3,1.1-.5l-.8-1c-.5.3-1.2.5-1.8.5-.9,0-1.8-.3-2.4-.9-.6-.6-1-1.4-.9-2.3,0-.9.3-1.7.9-2.3.6-.6,1.3-.9,2.2-.9"/>
        <path id="Path_161" class="st0" d="M548.9,252l-.5-.8c-.7-1-1.8-1.6-3.1-1.5-1.5,0-3,.8-3.7,2.2-.4.8-.6,1.6-.6,2.5,0,.9.2,1.7.6,2.5.3.6.9,1.2,1.5,1.5.7.4,1.5.5,2.2.5.6,0,1.3-.1,1.8-.4.5-.3.9-.6,1.3-1l.7-.8v2h1.7v-8.5h-1.6l-.3,1.9h0ZM549,255.3h0c-.5,1.7-2.3,2.7-4,2.2-.2,0-.5-.2-.7-.3-1-.6-1.6-1.7-1.6-2.9,0-.9.3-1.7.9-2.4.6-.6,1.4-.9,2.2-.9.7,0,1.4.2,2,.6.6.4,1,.9,1.2,1.6v2.2h0Z"/>
        <path id="Path_162" class="st0" d="M562.3,251.7l-.7-.8c-.4-.4-.8-.7-1.3-.9-.6-.2-1.2-.4-1.8-.4-.8,0-1.6.2-2.3.5-.7.4-1.2.9-1.6,1.6-.4.8-.6,1.6-.6,2.4,0,.9.2,1.7.5,2.5.3.7.8,1.2,1.5,1.6.7.4,1.4.6,2.2.6,1.3,0,2.5-.5,3.4-1.4l.6-.6v1.8h1.7v-16.4h-1.7v9.5h0ZM562.3,255.2h0c-.2.7-.6,1.3-1.2,1.7-.6.4-1.3.6-2,.6-.6,0-1.1-.1-1.6-.4-1-.6-1.6-1.7-1.6-2.9,0-1.2.6-2.3,1.6-2.9.5-.3,1-.4,1.6-.4.7,0,1.4.2,2,.6.6.4,1,.9,1.2,1.6v2.2h0Z"/>
        <path id="Path_163" class="st0" d="M575.1,250.6c-.8-.7-1.8-1.1-2.9-1-.9,0-1.7.2-2.5.6-.7.4-1.3,1-1.8,1.7-.4.7-.7,1.5-.7,2.3,0,.8.2,1.6.6,2.4.4.7,1,1.2,1.7,1.6.8.4,1.7.6,2.6.6.5,0,1,0,1.5-.3.4-.1.8-.3,1.2-.5l-.7-1.2c-.6.4-1.3.6-2,.6-.5,0-1-.1-1.5-.4-.5-.2-.8-.6-1.1-1l-.3-.4,7.3-2.5c-.2-1-.7-1.9-1.5-2.6M569.1,255v-.4c-.1-.1-.1-.3-.1-.4,0-.9.3-1.7.8-2.4.5-.6,1.3-1,2.2-.9.6,0,1.2.2,1.7.5.4.3.7.8.9,1.3l.2.4-5.7,2h0Z"/>
        <path id="Path_164" class="st0" d="M591.5,249.6c-.6,0-1.1.2-1.6.5-.5.3-1,.8-1.3,1.3l-.5.7-.2-.8c-.1-.5-.4-.9-.8-1.2-.5-.3-1.1-.4-1.7-.4-.7,0-1.3.1-1.9.5-.5.3-1,.8-1.3,1.4l-.5,1-.3-2.5h-1.5v8.5h1.7v-3.8c0-.6.1-1.2.3-1.8.2-.6.5-1,1-1.4.4-.4,1-.6,1.6-.6h0c.5,0,1,.2,1.3.6.3.4.4.9.4,1.4v5.6h1.7v-3.8c0-.9.3-1.8.8-2.6.5-.7,1.3-1.2,2.2-1.2h0c.5,0,.9.2,1.2.6.3.4.4.9.4,1.4v5.6h1.7v-6.5c0-.7-.3-1.3-.7-1.8-.5-.5-1.2-.7-1.9-.7"/>
        <path id="Path_165" class="st0" d="M605.1,250.1l-3,6.7-3-6.7h-1.9l4.1,8.5-2,4.5h1.6l5.7-13h-1.4Z"/>
        <path id="Path_166" class="st0" d="M246.6,73.2c-6.3,21.9-13.3,88.8,1.2,103.9,14.5,15.1,28,6.5,30.2-1.6s14.6-110.3,2.9-122c-11.7-11.7-28-2.2-34.4,19.6"/>
        <path id="Path_167" class="st0" d="M331.7,53.6c-11.7-11.7-28-2.2-34.4,19.6-6.4,21.9-13.3,88.8,1.2,103.9,14.5,15.1,28,6.5,30.2-1.6s14.6-110.3,2.9-122"/>
        <path id="Path_168" class="st0" d="M514,90.9c.4-15.7-30.5-7.8-28.5.3,14.2-4.3,28.5,18.5,28.5-.3"/>
        <path id="Path_169" class="st0" d="M139.3,95.2c-2.4,0-4.4,1.8-4.6,4.2-1.2,5.6-2.8,11.1-4.2,16.6-1.7,6.6-1.7,6.6,4.9,8.1,1.9.4,2.8.1,3.2-1.8,1-4.2,2.1-8.4,3.2-12.6.8-3.1,1.6-6.1,2.4-9.2,1.7-6.4,1.7-6.3-4.8-5.3"/>
        <path id="Path_170" class="st0" d="M221.4,83.3c-4.4-4.6-9.8-8.3-16.6-6.5-9.7,2.5-19.3,5.6-28.9,8.5-.9.3-1.8.5-2.7.8-1.1-1.3-2.2-2.6-3.4-3.9-2.9-3.7-7.2-5.8-11.9-5.9,6.5-4.1,9.2-9.7,4-18.7-18.1-31.6-67.7,22.5-78.7,22.5s23.9-49.7-12.3-49.7-43.3,154-7.6,154,17-38.5,17.8-42.1c0-20.6,43.9,68.9,79.7,34.9,9.1-14.9-2.4-23.2-17.5-30.9,5.8,1.5,11.5,3,17.3,4.5.2,0,.5.1.7.1.8.3,1.6.5,2.4.7,15.6,4.1,31.2,8.2,46.9,12.2,7.1,1.8,11.2-.6,13.1-7.6,4.1-15.7,8.1-31.5,12.3-47.2,1.1-3.6.4-7.6-2-10.5-4.1-5.2-8-10.5-12.5-15.3M164.3,89.4c-4,15.2-7.9,30.4-11.9,45.6-1.9,7-6.2,9.7-13.2,7.6-2.2-.6-4.4-1.2-6.7-1.7-15.4-7.5-30.6-15.7-30.6-30s26.6-23.3,45.2-29.8c2.1-.6,4.1-1.2,6.2-1.9,3.2-1.5,7-1.2,10,.8,2.6,2.2,1.9,6,1.1,9.3M215,91.7c-4.7,17.9-9.3,35.8-14,53.7-2.2,8.3-7.4,11.4-15.6,9-5.6-1.6-11.4-2.6-17.2-4.3,1.8-1.4,3-3.5,3.4-5.8,3.5-13.4,6.9-26.8,10.5-40.2,1-3.1.3-6.4-1.7-8.9-2-2.5-3.9-5-5.9-7.5,9-3,18.4-4.8,27.4-7.9,3.8-1.8,8.3-1.4,11.7,1,3,2.6,2.3,7,1.3,10.9"/>
        <path id="Path_171" class="st0" d="M189.2,98.5c-2.8,0-5.1,2.2-5.5,4.9-1.4,6.6-3.3,13.1-5,19.6-2,7.8-2,7.7,5.7,9.5,2.2.5,3.2.1,3.8-2.2,1.1-4.9,2.5-9.8,3.8-14.8.9-3.6,1.9-7.2,2.8-10.8,2-7.6,2-7.5-5.6-6.3"/>
        <path id="Path_172" class="st0" d="M116.1,43.3c9.1.2,16.6-7,16.8-16v-.8c.2-9.4-7.3-17.1-16.7-17.2-9.4-.2-17.1,7.3-17.2,16.7v.8c.2,9.3,7.9,16.7,17.2,16.5"/>
        <path id="Path_173" class="st0" d="M420,148.4c-7-2.4-39.3,13.9-49.6.1-.8-1.3-1.9-3.1-1.4-3.6s1.9.4,3.9.8c19.4,4.7,38.9-16.1,38.3-28.2-.9-11.5-9.7-20.8-21.2-22.2-14.3-2.7-28.9,2.7-37.9,14.1-24.7,28.7-7.6,62.7,10.4,71.8s35,2.9,46.4-9c6.5-6.7,18.6-21.2,11.2-23.7M392.9,107.1c14.7,8.4-14.7,35.3-21.7,32.8s7-41.2,21.7-32.8"/>
        <path id="Path_174" class="st0" d="M599.4,148.4c-6.2-2.1-32.8,10.7-45.7,3.6-1.5-.8-2.9-2-3.9-3.4-.8-1.3-1.9-3.1-1.4-3.6s1.9.4,3.9.8c19.4,4.7,38.9-16.1,38.3-28.2-.9-11.5-9.7-20.8-21.2-22.2-14.3-2.7-28.9,2.7-37.9,14.1-11.9,12.9-15.5,31.4-9.4,47.8-20.6,3.8-88.4,13-74-4.7,19.8,5,38.8,4.1,56-7.9,13.9-9.7,13.7-27.8,0-37.8-11.5-8.4-24.8-10.2-38.4-9.8-12.5.4-24.6,2.5-34.6,11-9.8,8-11.2,22.4-3.2,32.2.6.8,1.3,1.5,2,2.2,3,2.6,6.1,5,9.3,7.2-2.1,2.2-4.3,4.4-6.2,6.7-8.7,10.5-2.8,18,8,23.3-2,1.1-3.8,2.5-5.2,4.3-5.6,3.4-9.9,14.7-5,19,3.7,3.3,8.1,5.8,12.9,7.4,15,4.7,31.1,4.7,46,0,7.7-2.1,14.7-6.4,19.9-12.5,5.5-6.7,6.8-16.4.1-22.6,6.6-1.5,13.3-2.9,20-4.4,3.3,4.3,7.4,7.8,12.2,10.4,18,9.1,35,2.9,46.4-9,6.5-6.7,18.6-21.2,11.2-23.7M572.3,107.1c14.7,8.4-14.7,35.3-21.7,32.8s7-41.2,21.7-32.8M468.5,104c19.1-1.5,8.8,42.2.7,44.4-8.1,2.1-19.8-42.8-.7-44.4M488.6,195.2c-51.1,14.1-39.4-11.8-25.2-15.8,14.2-4.1,40.8,10.1,25.2,15.8"/>
      </g>
    </g>
  </g>
</svg>