<svg xmlns="http://www.w3.org/2000/svg" viewBox="0 0 220 58" fill="none" role="img" aria-label="ViiwLink">
  <!-- Double-loop mark above "ii" -->
  <path d="M82 6 C77 6 73 10 73 15 C73 20 77 24 82 24 C87 24 90 20 93 15 C96 10 100 6 105 6 C110 6 114 10 114 15 C114 20 110 24 105 24 C100 24 97 20 94 15"
        stroke="#1a2742" stroke-width="3" stroke-linecap="round" fill="none"/>
  <!-- v -->
  <path d="M12 22 L26 50 L40 22" stroke="#1a2742" stroke-width="4" stroke-linecap="round" stroke-linejoin="round"/>
  <!-- i (left) -->
  <line x1="54" y1="22" x2="54" y2="50" stroke="#1a2742" stroke-width="4" stroke-linecap="round"/>
  <!-- i (right, pairs with loop) -->
  <line x1="84" y1="30" x2="84" y2="50" stroke="#1a2742" stroke-width="4" stroke-linecap="round"/>
  <line x1="104" y1="30" x2="104" y2="50" stroke="#1a2742" stroke-width="4" stroke-linecap="round"/>
  <!-- w -->
  <path d="M118 22 L128 50 L138 34 L148 50 L158 22" stroke="#1a2742" stroke-width="4" stroke-linecap="round" stroke-linejoin="round"/>
  <!-- link separator -->
  <line x1="172" y1="18" x2="172" y2="52" stroke="#1a2742" stroke-width="1" stroke-linecap="round" opacity="0.25"/>
  <!-- link text -->
  <text x="180" y="48" font-family="system-ui,-apple-system,sans-serif" font-size="20" font-weight="300" letter-spacing="-0.5" fill="#1a2742">link</text>
</svg>
